<svg xmlns="http://www.w3.org/2000/svg" width="348.03119mm" height="225.51251mm" viewBox="0 0 348.03119 225.51252"><path d="M62.862 184.785H31.495v-31.352h31.367ZM94.21 216.136H62.863v-31.351H94.21zM31.505 216.136H.155v-31.351h31.35ZM62.862 247.487H31.495v-31.351h31.367Z" style="fill:#5ec2d0;fill-opacity:1;fill-rule:nonzero;stroke:none;stroke-width:2.00403" transform="matrix(2.01006 0 0 2.01006 158.662 -308.41)"/><path d="M0 0s1.694 2.246 1.889 2.478c-.186-.041-.088.147-.069.297.158.035 1.326 1.779 1.734 2.132.006.034.01.067.015.103.019.007.319-.95.501-1.145-.259-.717-.527-1.44-.789-2.157-.12-.6-.008-1.191-.191-1.762-.184-.598-.901-1.321-1.546-1.503-.324-.099-.577-.094-.888-.238l-1.84-1.154C-2.012-2.569-.105-.753 0 0m7.587 1.774a.583.583 0 0 0-.01-.08c.118.007.09.031.075-.077-.028.03-.051.05-.075.077-.083-.004-.051.02.01.08m-21.443-14.57c.187.086.372.176.551.264.657.04 1.04.32 1.607.527.163.063.33.123.495.17a.45.45 0 0 0 .086.009c-.18-1.311-1.106-2.604-.553-3.829.115-.178.236-.354.343-.528.184-.066.365-.134.545-.201.204-.09.36-.289.571-.373.13.01.137-.077.222-.129.378-.249.665-.099 1.043.213.006.029.008.053.013.081.339.026.486-.099.845.055.036.263-.058.434.017.728-.129-.006.279.231.38.345.151.008-.002.29-.028.397-.107-.005-.084-.033-.073.079.038.013.073.03.113.041l.792 1.362c.292.356.581.712.879 1.064.079.182.09.311.05.463.519.037.682 1.231.63 1.575.193.012 1.075.93 1.347 1.11.276.129.555.253.84.38 0 0 .022.006.033.021.137.005.098.21.133.332.017.127-.039.078-.161.069.002.024.011.052.013.078.163-.009.322-.026.489-.043.354.131.708.257 1.066.386.012.107.184.225.13.281.247.021.496.04.745.06.452.101 1.737.712 2.081 1.059.052.002.111.011.165.011-.009-.112-.035-.086.073-.082.017.132.182.144.274.185.015.11-.011.079.101.086l-.014-.084c.186.02.1-1.718.379-2.063l.091.004a5.1 5.1 0 0 1-.133-.332s-.002-.318-.068-.483h.086c-.036-.277.808.101.939.146l.011.079a4.994 4.994 0 0 1-.004-.175c-.05-.253-.213-.442-.423-.61-.965-.765-.526-1.827-.412-2.657.018-.281.028-.564.043-.852.082-.167.148-.339.223-.514-.03-.176-.053-.354-.079-.541-.03-.414.038-.781.175-1.111-.01-.032-.012-.06-.014-.086.088.009.274.515.596.683-.008-.022-.017-.033-.022-.056a47.464 47.464 0 0 1-.3-.64c-.157-.548-.075-1.518.307-1.797-.053-.412-.132-.736.298-.866.013.081.026.163.036.244.029.202.217.414.314.59l.289.735c.182.014-.135.292-.193.389-.122-.007-.025.268-.028.401.106.002.221.013.332.021.081.558-.048.961-.31 1.348-.124-.007.034.055.092.085.006.028.006.054.011.084.124.006.025-.019.073-.08-.005-.023-.005-.047-.013-.077.113.004.099.004.128.101.265.748.54 1.489.867 2.213.137.009.084.076.079.174.033.268.071.536.105.802.061.646.059 1.414.316 2.038-.104-.011-.141.684-.299.862.018.125.114.174.209.253.032.245.062.491.098.73.028.184.259.381.403.51.041.27-.008.498.031.806-.14-.011-.169.056-.23.146-.111-.008-.09-.035-.075.073.172.017.324.247.38.377.062.237.126.472.186.71.5 1.021 1.12 1.195 2.048 1.712.138.103.271.202.408.298.024.15-.185.125-.315.133.006.03.009.056.013.084.25.019 1.469 1.083 1.658 1.338.066.161.137.328.201.493.199.079.421-.021.56-.064l.013.079c.182.095.36.189.537.279.022.12.063.086.182.092.018.131-.123.121-.226.149.019.141.152.132.27.175a.361.361 0 0 0 .016.082c-.081-.005-.144.002-.164.073.071.476.35.519.734.45.011.056.48.76.533.837.121.006.142.236.218.334-.02-.139.161-.019.254.019-.025-.158.211.17.284.258-.131-.007-.142.084-.232.146a.313.313 0 0 1 .015.083l.436.108c0 .03.004.053.01.079.789.053 1.208.611 1.943.77.024.176.157.244.301.345.01.079.021.159.034.241-.058-.005-.113-.007-.169-.011-.017-.146-.266-.254-.384-.345-.103-.007-.275.177-.388.212l.013.084c.317.023.37.42.705.285.026.002.058.008.088.008.008.09-.013.105-.067.155.033.206-.03.098-.049.238.019.123-.864-.258-1.042-.307.017.129.127-.068.028-.009.007.026.008.052.01.078.264.017.406.396.537.568.014.118-.088.111-.181.133-.523.118-2.356-.62-2.92-.83-.434-.15-.867-.307-1.298-.457-.292-.163-.584-.319-.873-.484-.954-.436-1.949-.704-2.889-1.182.006.025.009.055.013.081-.095-.004-.097.017-.155.071.047.324.101.56-.053.8.047.139.1.277.15.416.094.699.188 1.401.277 2.106-.138-.01.059.154.122.251.147.007.03.138 0 .221-.262.674.07 1.495.017 2.272-.026.461-.229.694-.002 1.205-.129-.009-.097.045-.12.126-.2.657-.486.425-1.04.605.012.054.021.111.025.159.12.009.27.133.361.191.049.33-.531.555-.743.669-.011-.086-.555-.168-.69-.225-.325-.144-.674-.27-1.038-.245-.239.011-.449.14-.737.073-.763-.188-2.421-1.759-3.107-2.379.03.005.056.005.088.007-.021-.142.195-.131.316-.142-.012-.049-.018-.106-.026-.16-.112-.007-.079.021-.093-.088-.229-.018-.779-.24-.963-.402-.375-.338-.517-.902-.824-1.297-.175-.23-.533-.283-.647-.583-.004-.067-.004-.138-.006-.209-.002-.025-.007-.053-.011-.081-.826-.054-2.401-3.89-3.202-4.39-.012-.052-.016-.107-.022-.157-.034 0-.06-.008-.09-.008-.032-.537-.356-.758-.577-1.197-.133-.266-.174-.476-.356-.714.142.006.038-.078-.019-.164.12.007-.083-.197-.116-.323-.111-.44-.483-.743-.686-1.129-.438-.855-.919-1.58-1.177-2.537-.5-.03-.301-.604-.102-.731a.509.509 0 0 0-.015-.082c-.546-.036-.609-.611-.637-1.003-.03-.005-.058-.005-.083-.005.015.118-.041.069-.124.041-.717-.244-1.328-.437-1.933-.98-.152-.013.002-.108.062-.159-.002-.03-.009-.056-.011-.079-.529-.034-.802-.094-1.308-.42-.437-.28-.993-.968-1.549-.893-.032-.002-.058-.002-.087-.008-.005-.024-.005-.052-.011-.077-.137-.009-.088-.146-.116-.254-.021-.128-.328-.326-.418-.454-.135-.207-.345-.332-.498-.524-.277-.358-.527-.763-.602-1.201-.057-.333 1.065-.605 1.374-.549" style="fill:#006cb7;fill-opacity:1;fill-rule:nonzero;stroke:none" transform="matrix(4.02823 0 0 -4.02823 117.758 150.97)"/><path d="M0 0c-.467.028-.886-.294-1.259-.577l-.358-.261-1.55-.912-1.48-.871c-.852-.394-1.573-.673-2.266-.859l-.467-.175a1.796 1.796 0 0 0-.438-.16l-.032-.007s-.004-.011-.008-.017a.749.749 0 0 0-.084.058l-.078.055c-.238.148-.302.513-.302.94 0 .264.022.556.048.828.021.274.046.541.046.778 0 .117-.012.217-.025.314.295.107.338.761.375 1.346.018.258.032.498.067.592.056.144.219.282.362.402l.034.029.011.054s-.011.367-.014.419c.242.281.593 1.46.595 1.471a.763.763 0 0 1 .024.188c0 .08-.015.149-.026.213.082.047.112.139.131.199l.022.054.006.045a.113.113 0 0 1 .024.011l.167.069s-.025.046-.045.072c.008.024.153.337.184.404a.12.12 0 0 1 .084.047c.013.021.018.047.018.047 0 .041-.012.062-.018.081.105.062.197.195.283.32l.112.146.358.349c.229.215.446.425.641.691.011.017.18.466.18.466l.084.218.125.161c.145.187.317.403.317.678 0 .034 0 .068-.007.105-.062.431-.442.594-.742.72l-.066.031c.004.019.01.083.01.083h-.158c-.096.005-.174.013-.232.017.095.112.144.299.172.425a.28.28 0 0 1 .144.084l.111.122-.186.029-.018.048-.03.107-.064.005-.274.015-.102-.281c-.079.025-.136.068-.195.174l-.017.045-.088.012-.006.009.006.004.016.073-.142.058c.021.032.045.073.045.073s-.103.013-.125.013c.002.017.006.028.006.028a.514.514 0 0 1 .009.096.193.193 0 0 1-.028.099c-.015.017-.047.017-.072.03a.272.272 0 0 1-.125.161l-.017.013c.007.025.019.088.019.088l-.098.031a1.386 1.386 0 0 0-.375.114c-.308.11-.653.238-.902.09-.115-.07-.189-.208-.232-.39-.04.019-.08.026-.124.06l-.073.05c-.013.036-.019.076-.019.076l-.136.035h-.128l-.014-.077c-.039-.3-.093-.369-.316-.515l-.203-.133s.115-.017.184-.025a.088.088 0 0 1-.017-.026l-.116-.221c-.341-.627-.654-1.255-.654-1.6 0-.041.009-.069.021-.103-.098.004-.352.021-.352.021l-.006-.081c-.075-.594-.238-.804-.507-1.161l-.226-.304a702.22 702.22 0 0 1-.283-.541l-.095-.175c-.217-.279-.375-.621-.526-.949-.15-.321-.295-.632-.499-.9l-.43-.451c-.158-.218-.302-.51-.447-.823-.179-.361-.361-.738-.56-.961l-.028-.024-.279-.217c-.478-.448-1.119-1.119-1.336-1.82a.705.705 0 0 0-.083-.022l-.014-.006c-.787-.511-1.501-1.343-2.133-2.074l-.242-.277-.323-.407-.088-.107c.006.008-.369-.258-.369-.258-.154-.099-.321-.2-.476-.362l-.392-.509-.049-.064c-.093-.086-.271-.073-.454-.054-.173.018-.358.022-.507-.062.149 1.147.422 2.089.926 3.172.026.011.056.019.079.049.02.022.024.043.024.069a.226.226 0 0 1-.021.082l-.011.041c-.005.029-.014.064-.014.104 0 .444.37 1.457.584 1.918l.028.06-.054.034a.29.29 0 0 1 .017.035l.065.111.065.369.074.446c.101.541.327 1.551.686 2.284l.114-.008-.009.111-.004.058a2.3 2.3 0 0 0-.023.29c0 .336.088.68.249 1.027l.12-.006-.034.173c-.195.721-.897 1.858-1.959 1.862-1.316.008-2.657-3.316-2.897-4.508-.066-.015-.232-.045-.232-.045l-.064-.015-.009-.063c-.034-.274-.135-.503-.242-.739l-.153-.368-.433-1.134-.249-.618.097-.025s.113-.032.217-.058c-.09.002-.373.019-.373.019l-.007-.085c-.028-.215-.12-.426-.204-.629l-.135-.32-.022-.126-.096-.584-.176-.341-.092-.184c-.156-.399-.225-.798-.294-1.21l-.079-.429-.06-.33c-.069-.311-.133-.626-.133-.922 0-.309.077-.601.285-.888l-.008-.017-.337.094-.034-.238.063-.03s.086-.038.147-.062a3.942 3.942 0 0 1-.026-.41c0-.747.232-1.39.719-1.99l.148-.174c.149-.167.265-.3.349-.543l.017-.058.976-.055s.003.019.004.043c.101-.043.592-.232.592-.232l.03.004.485.049c.397.024.841.054 1.064.232.019-.004.047-.004.096-.006l-.008-.064-.017-.168h.096c.432-.023.708.223.974.455l.322.264.012.036a.543.543 0 0 1-.046.275c.06.011.134.047.235.107l.165.086-.011.042-.038.131c-.015.015-.04.024-.062.037.161.006.302.047.416.09.152.058.234.146.311.227l.178.166.412.227c.369.191.785.418 1.014.789.065.015.17.086.402.356l.017.026.008.058a.345.345 0 0 1 .125.131l.036.066h.004c.513.142.845.669 1.163 1.184.208.333.429.682.682.897l.028.021.006.025.069-.002.009.088.015.112-.056.049-.045.024a.704.704 0 0 0-.127.08c.257.066.487.244.581.46.03.078.043.15.043.227a.497.497 0 0 1-.062.234l.416.039c.03-.06.063-.152.09-.238.075-.249.18-.571.446-.748-.038 0-.173.01-.173.01s-.003-.055-.007-.077l-.071.007-.012-.082c-.007-.034-.007-.073-.007-.105 0-.437.317-.834.648-1h.006s-.006-.021-.006-.051c-.007-.005-.022 0-.028-.013a.153.153 0 0 1-.023-.075c0-.096.083-.223.188-.378.105-.165.246-.381.246-.525a.214.214 0 0 0-.003-.034.14.14 0 0 1-.044-.046c-.003-.014-.003-.027-.003-.027 0-.107.145-.262 1.05-.923l.103-.074.195-.234c.067-.095.144-.189.243-.266a.447.447 0 0 0-.09-.142l-.159-.204.173-.006c.091-.004.307-.159.483-.283.178-.125.351-.247.482-.296l.108-.039.056.476c.105-.004.551-.032.551-.032l.135.035s.043.13.047.135c.075-.045.153-.099.225-.163l.367-.279.011.154v.013c.176.034.325.17.405.249l.249-.002c.712-.048.965.313 1.282.772l.123.178.019.197h-.163a.098.098 0 0 1-.041.046c-.056.032-.11 0-.167-.037l-.073.013v.008c0 .03.022.133.176.386l.311-.103.015.11a.067.067 0 0 0 .015.034c.052.02.195-.041.311-.118.007-.026.011-.064.036-.086.046-.047.113-.047.175-.038a.456.456 0 0 1 .089-.161v-.004a.14.14 0 0 1 .039-.105c.038-.041.094-.039.131-.035l.126.007.02.075.01.081-.023.061c-.021.023-.043.023-.062.023-.006.023-.012.032-.014.058a.487.487 0 0 1 .018.017s.01.026.023.053l.157-.01v.004c.058-.008.116.028.16.06 0 0 .007 0 .009.009.041.002.339.049.339.049l-.002.165c.002-.008.013-.01.018-.021a.056.056 0 0 1 .004-.019l-.003-.029c.02.031.142.132.719.428a.4.4 0 0 0 .045.025l.14-.002.007.084.018.184-.11-.015s-.34-.039-.39-.043l.013.118v.026a.164.164 0 0 1-.041.113c-.053.054-.137.065-.223.065l.01.004v.035s.009.094.018.158c.338.035.713.382.884.605.015 0 .109-.009.109-.009l.041.333-.073.002.017.079.03.011.102.039.338.158c.429.185.707.318.77.438l.403.948-.01.017c.113.151.757.674.949.716l.063.018.011.062v.019c0 .133-.118.292-.212.44l-.062.092c.025.034.055.088.105.165.127.213.435.706.527.77l.035.017.034.284z" style="fill:#006cb7;fill-opacity:1;fill-rule:nonzero;stroke:none" transform="matrix(4.02823 0 0 -4.02823 281.246 134.434)"/><path d="M60.731 213.927H33.705V186.9h27.026zm1.085-29.185H31.55v31.348h31.343v-31.348z" style="fill:#e60013;fill-opacity:1;fill-rule:nonzero;stroke:none;stroke-width:2.00403" transform="matrix(2.01006 0 0 2.01006 158.662 -308.41)"/><path d="M0 0c-.495.126-1.157.253-1.581.309l-.032-.022-.176-.135s-.004-.006-.006-.014a.59.59 0 0 1-.206-.024l.004.012-.071.014-.319.053C-2.46.206-2.543.14-2.629.077l-.047-.034-.108.15-.034-.124-.011-.045c-.009.004-.026.004-.026.004-.004.03-.058.043-.238-.148-.036.026-.146.081-.146.081l-.038-.051c-.026-.03-.155-.073-.202-.09l-.004-.004-.007.012c-.017.009-.042.013-.079-.032l-.075.03-.06.005-.024-.031-.165-.229-.011.005v.096l-.195.028-.036-.138a.731.731 0 0 1-.034.009s-.005-.017-.011-.028c-.017.007-.157.08-.157.08l-.015-.073c-.004-.02-.036-.077-.27-.153l-.032-.01-.004-.034c-.014-.03-.058-.061-.097-.091l-.079-.06s0-.011-.003-.013c-.205.013-.407-.073-.594-.154l-.272-.105-.013-.033c-.052-.168-.129-.416-.251-.525a.258.258 0 0 1-.05.056l.027.084-.071.01c-.104.02-.176-.13-.231-.289v.038l-.052.007-.009.002.006.026-.066.032c-.065.011-.107-.022-.141-.071l-.009.09-.045.015c-.073.013-.237-.056-.564-.208l-.35-.15-.013-.028c-.045-.135-.148-.225-.255-.328a1.046 1.046 0 0 1-.244-.27c-.215.032-.361-.002-.526-.215-.015-.006-.03-.006-.041-.017-.028-.026-.034-.064-.034-.111 0-.028 0-.065.005-.09-.035.003-.065.013-.065.013l.041-.108s.004-.015.01-.026c-.013-.017-.036-.03-.101-.038 0 0-.021 0-.04-.003.017.035.045.101.045.101l.006.003-.118.049-.006-.013a.55.55 0 0 0-.154-.15l-.307-.272.24.053s.024.002.047.009c-.011-.043-.023-.142-.031-.172-.239-.133-.863-.877-.872-.888l-.075-.144-.053-.116c-.048-.008-.127-.04-.301-.177l-.001.002-.014.041-.049.034c-.103.019-.129-.067-.141-.111-.003-.016-.069-.232-.069-.232-.069-.238-.084-.288-.373-.436l-.015.224-.101-.2s-.208-.374-.236-.42l-.23.178c-.057-.037-.073-.093-.086-.17l-.063.009s-.014-.033-.016-.047l-.03.01-.017-.041-.193-.323-.179-.359-.207-.263c-.199-.238-.405-.492-.463-.822-.236-.068-.468-.93-1.177-2.196l-.426-.723a1.333 1.333 0 0 1-.029-.169v-.013c0-.049-.007-.071-.088-.116l-.022-.013-.009-.025c-.073-.245-.13-.376-.291-.562l-.022-.05-.025-.075s.015-.008.025-.008c-.025-.048-.137-.245-.137-.245-.013-.023-.013-.043-.013-.064 0-.069.032-.125.059-.172l.046-.098.06-.022s.026-.007.031-.007c-.094-.203-.192-.409-.192-.57a.36.36 0 0 1 .028-.135c.028-.058.086-.093.149-.116-.063-.15-.165-.391-.165-.573l.043.009-.029-.097.065-.029.13-.024-.036-.277s.015-.008.026-.01a.09.09 0 0 1-.032-.074c0-.053.019-.137.045-.253l-.047.026-.105-.444-.033-.137c-.002-.017-.002-.551-.002-.551-.011-.118-.084-.247-.146-.355l-.011-.014-.001-.067.036-.047.011-.056.018-.06c-.008.017-.018-.009-.018-.009l-.029-.1.144.028c.116.034.298-.249.395-.399 0 0 .041-.06.064-.097v-.006a2.867 2.867 0 0 1-.093-.069l.007-.019v-.006c0-.033.022-.052.041-.067l-.004-.056.026-.008-.026-.221-.004-.026.126-.004c-.002-.005-.008-.019-.023-.022l-.033.003.078-.133.024-.013a.05.05 0 0 1-.007-.026.12.12 0 0 1 .03-.08c.165-.171.225-.281.225-.446 0-.124-.032-.272-.088-.498l-.013-.048-.023-.03s-.026-.031-.035-.039h-.002l-.004-.007c-.041-.06-.152-.205-.152-.205l-.013-.028-.011-.094.06-.024c.112-.013.157.096.191.188.034-.012.072-.025.081-.051l.024-.064.024.023s.055.022.105.037l-.054-.17-.008-.034.049-.022a.24.24 0 0 0 .028-.126.3.3 0 0 0-.041-.152c-.009-.019-.009-.033-.009-.033 0-.102.058-.199.133-.33l.05-.073c-.013.024-.019 0-.019 0l-.02-.068.195-.039.022.047.071.133c.029-.008.053-.017.053-.017s.161-.019.21-.019c.004-.013.02-.118.02-.118l.051.003h.341l.015.044c.039.133.075.154.166.216h.076c.058.005.067.005.089-.019l.014-.019s.005 0 .013-.004c0-.058-.073-.218-.098-.271l-.06-.147.081-.009.092-.018s.013.031.018.048a.102.102 0 0 1 .027-.007l.022.037.149.251.02.032.002.009.043-.022.007-.002-.002-.041-.056-.283-.045-.251c0-.017.07-.201.07-.201l.086-.213a.025.025 0 0 1-.006-.004l-.021-.075s.019-.009.039-.01c-.009-.028-.027-.097-.027-.097l.082.023s.137.03.152.038c.073.005.242 0 .273-.081l.012-.034.148-.026.039.053c.021.065.146.05.182.041 0 0 .065-.025.105-.034-.001-.017-.017-.064-.017-.064l.069-.011c.06-.011.101.024.12.068a.39.39 0 0 1 .176-.143c-.016.009.066-.062.066-.062l.088-.079c.208-.079.419-.03.603.008l.225.046.101-.166.039.138c.036.119.173.171.418.167.098-.015.178.111.283.296 0 0 .02.032.033.058.033.004.136.023.175.038-.002-.019-.009-.034-.009-.034l.073-.011-.082-.201c-.059-.129-.124-.262-.143-.436l-.006-.059.152-.031.015.058a.903.903 0 0 0 .208.3l.015-.004h.017c-.004.019.075-.146.075-.146l.032-.072.119-.02.193.311.006.028c.045.006.195.032.195.032l.199.037.412-.022.191.069c.099.049.165.079.212.043l.076-.055.032.106a.73.73 0 0 1 .186.107.294.294 0 0 1-.028-.064l.215-.032s.007.01.013.03c.017-.009.062-.026.062-.026l.125-.06.019.071.027.1-.06.026-.002.05.002.008a.255.255 0 0 1 .033-.019l.118-.075.014.084c.022.07.093.13.193.167.116.036.228.025.273 0l.071-.056.026.088c.036.126.283.195.405.221l.051.008.64.144.105.011.012.047.035.101-.013.006s.021.02.03.026c.103.007.513.047.62.09l.026.013s.028.083.034.105c.053.013.12.026.179.032.121-.023.327.148.393.294h.007c.056-.039.092.021.165.131 0 0 .017.019.026.034v-.015l1.175.607s.051.034.069.05h.073l.015.053c.03.172.109.292.227.352.114.06.249.056.385-.005l.1-.049-.013.105c-.007.063.019.483.047.541.051.06.116.068.195.081.085.013.176.024.256.108l.077.109.073.101c-.011-.011.189.075.189.075.098.03.207.062.291.156.092.11.128.253.157.395l.088.274c.09.174.811.578.944.528l.072-.026.005.041c.146.084.682 1.424.688 1.439.002.009.322-.041.322-.041l.011.037v.013c.321.051.56.306.791.562.21.238.337.763.586.81l.049.009.002.051v.037c0 .09-.023.15-.073.187-.099.075-.24.015-.354-.03l-.094-.037-.002-.043a1.861 1.861 0 0 1-.618-.206v.02l-.075-.009c-.075-.009-.146-.069-.206-.12l-.086-.064-.22-.086c-.007.004-.005.011-.01.019-.051.02-.086-.019-.118-.049l-.016-.022c-.326-.274-1.09-.853-1.366-.873H.68l-.006-.045c-.014-.004-.058-.004-.058-.004l-.028-.043c-.028-.03-.202-.055-.318-.055l-.043.002-.023-.047c-.054-.11-.819-.582-.947-.561-.098.005-.117-.036-.123-.072l-.135.036-.033-.067c-.01-.066-.158-.21-1.025-.413l.009.008-.098.017-.055-.006-.027-.043c-.018-.03-.16-.084-.217-.109l-.137-.058.001-.017c-.049-.005-.107-.043-.227-.116-.094-.062-.236-.159-.295-.163l-.041-.004s-.009-.022-.011-.033a.856.856 0 0 1-.227-.06l-.264-.068-.015-.037c-.253.022-.616-.089-.841-.225-.002.009 0 .013-.002.017-.029.033-.064.033-.092.033l-.02.002-.068.014-.042-.047c-.016-.017-.089-.017-.115-.017l-.077-.002-.084.127-.054-.101c-.024-.034-.218-.086-.321-.114 0 0-.182-.06-.236-.081-.009.004-.03.008-.06.015-.011.013-.013.032-.024.041-.051.025-.096-.02-.156-.097-.045.021-.101.052-.101.052-.015.008-.051.01-.051.01l-.058.011-.018-.054c-.013-.034-.083-.047-.137-.049l-.097-.017s-.004-.015-.005-.028l-.185.047-.431-.097-.243.02-.299.021c-.567.12-1.26.676-1.372 1.351a1.729 1.729 0 0 0-.023.296c0 .163.017.331.036.511l.005.034.01.219c.005.148.009.287.056.455l.193.463.12.262.123.42.182.354c.008.022.028.264.028.264l.006.058.043.178s.017.053.028.107a.13.13 0 0 0 .006-.047 2.14 2.14 0 0 0-.017-.215l-.013-.062.152-.026.018.043.107.208.187.184c.006.005.373.47.373.47l.238.363c.149.246.315.519.474.618l.017.008.002.004c.015-.006.033-.017.033-.017l.119-.069.016.082a.4.4 0 0 1 .019.138c0 .074-.011.15-.024.22 0 0-.002.016-.009.028.037-.045.082-.096.168-.092.204.013.819.577.991.811l.068-.05.092-.094.056.08.12.154a.893.893 0 0 1 .228.336c.038.007.193.043.27.061a.235.235 0 0 1 .09-.108l-.023-.073.092-.021.073-.015.023.083c.045.026.069.08.078.121l.021.066c.007.011.137.127.137.127l.015.008c.026-.008.058-.015.058-.015l.018-.006c.044-.013.207-.191.242-.26l.068-.15.048.157a.232.232 0 0 0 .124.146.38.38 0 0 0 .291-.027l.037-.016.041.036c.051.037.515.178.607.187l.377-.03c.153-.017.311-.037.482-.011.218.041.426.165.632.294l.336.186.467.157.473.154c.313.151.628.309.875.492l.519.446c-.005-.005.193.117.193.117.122.076.257.151.381.288.149.169.207.386.268.596l.129.367.159.264c.121.337.18.667.18 1.004 0 .268-.034.531-.105.811l-.082.269c-.009.018-.246.323-.246.323-.215.248-.416.486-.416.847 0 .051.004.109.02.171l.007.073h-.414l-.014-.045c-.005.009-.002.019-.015.03-.164.135-.172.217-.178.373 0 0-.024.193-.026.223.004.017.047.15.047.15l-.154.026-.028-.051s-.009-.024-.011-.041c-.026.007-.103.019-.103.019s.054-.116.056-.124l-.013-.004c-.101-.005-.253.089-.275.139l-.012.03-.129.024-.015-.054C1.036-.69 1.036-.69 1.03-.69h-.016L.96-.684.95-.699c-.067.118-.125.21-.176.242L.761-.45c-.004.008-.004.03-.023.043-.05.028-.18-.091-.18-.091C.12-.172 0 0 0 0" style="fill:#006cb7;fill-opacity:1;fill-rule:nonzero;stroke:none" transform="matrix(4.02823 0 0 -4.02823 61.14 114.822)"/></svg>